PathFileType	4	(X/Y/Z)	TRAIL_071_EP_01_markers.trc
DataRate	CameraRate	NumFrames	NumMarkers	Units	OrigDataRate	OrigDataStartFrame	OrigNumFrames
200	200	4	44	mm	200	68	270
Frame#	Time	RSH			LSH			C7			LELB			LWR			RELB			RWR			RASI			LASI			SACR			P1			P2			LTHLP			LTHLD			LTHAP			LTHAD			LLEPI			LPAT			LTIAP			LTIAD			LTILAT			LLMAL			LHEEL			LMFS			LMFL			LP5MT			LP1MT			LTOE			RTHLP			RTHLD			RTHAP			RTHAD			RLEPI			RPAT			RTIAP			RTIAD			RTILAT			RLMAL			RHEEL			RMFS			RMFL			RP5MT			RP1MT			RTOE			
		X1	Y1	Z1	X2	Y2	Z2	X3	Y3	Z3	X4	Y4	Z4	X5	Y5	Z5	X6	Y6	Z6	X7	Y7	Z7	X8	Y8	Z8	X9	Y9	Z9	X10	Y10	Z10	X11	Y11	Z11	X12	Y12	Z12	X13	Y13	Z13	X14	Y14	Z14	X15	Y15	Z15	X16	Y16	Z16	X17	Y17	Z17	X18	Y18	Z18	X19	Y19	Z19	X20	Y20	Z20	X21	Y21	Z21	X22	Y22	Z22	X23	Y23	Z23	X24	Y24	Z24	X25	Y25	Z25	X26	Y26	Z26	X27	Y27	Z27	X28	Y28	Z28	X29	Y29	Z29	X30	Y30	Z30	X31	Y31	Z31	X32	Y32	Z32	X33	Y33	Z33	X34	Y34	Z34	X35	Y35	Z35	X36	Y36	Z36	X37	Y37	Z37	X38	Y38	Z38	X39	Y39	Z39	X40	Y40	Z40	X41	Y41	Z41	X42	Y42	Z42	X43	Y43	Z43	X44	Y44	Z44
68	        0.3350000083	     1296.7086434364	     1492.6304817200	      164.7717356682	     1314.6520853043	     1500.4885196686	     -169.2444086075	     1223.7892746925	     1516.4036750793	      -10.8512043953	     1294.6574687958	     1189.7754669189	     -299.6678650379	     1491.7455315590	     1232.3468923569	     -139.8755908012	     1104.7720909119	     1258.4469318390	      308.6107373238	     1285.6016159058	     1047.2047328949	      259.9712610245	     1315.7004714012	      993.9044713974	      128.9185881615	     1335.5953693390	      988.0594611168	     -130.1143169403	     1149.1667032242	     1046.6353893280	       -3.2805800438	     1153.1416177750	     1046.9237565994	      -47.8972792625	     1152.0020961761	     1047.6906299591	       39.3885374069	     1174.7035384178	      715.8651947975	     -162.5902056694	     1138.8247013092	      610.5998754501	     -142.7097916603	     1264.5037174225	      680.0113320351	      -78.4610509872	     1212.3850584030	      587.3863697052	      -71.0902214050	     1096.2433815002	      524.7266292572	     -126.5560388565	     1148.0929851532	      486.8710041046	      -80.0728797913	     1029.5119285583	      367.0979738235	      -80.2941322327	      960.4934453964	      285.6015563011	      -78.7684321404	      944.0376758575	      365.4389083385	     -127.1020770073	      833.1115245819	      201.4941126108	      -96.0634946823	      766.5624618530	      213.8387411833	      -39.0950441360	      899.9154567719	       96.4723378420	      -50.2905249596	      836.1551761627	       72.8757604957	     -123.8868236542	      878.4861564636	       36.0105782747	     -126.9825100899	      894.6357965469	       47.0701567829	      -21.9857096672	      926.5366792679	       41.4360575378	      -52.9094338417	     1349.7424721718	      756.8284869194	      168.9838767052	     1398.5317349434	      674.0648150444	      147.0888257027	     1426.2862801552	      802.3182153702	       81.3778042793	     1473.6040830612	      721.1737632751	       74.3694901466	     1438.2556080818	      571.4741349220	      120.1069951057	     1516.3471102715	      562.5151991844	       71.4215636253	     1427.8279542923	      416.8737828732	       87.3622894287	     1368.1813478470	      322.0757246017	       82.7339291573	     1342.9655432701	      409.3574285507	      135.1028680801	     1241.2053942680	      213.3010923862	      105.2631139755	     1179.7397136688	      190.3451830149	       48.7920045853	     1351.4122366905	      145.3739702702	       65.3001666069	     1308.5250258446	      105.2805408835	      142.3003673553	     1357.9178452492	       84.9697813392	      150.0492095947	     1380.9624910355	       85.5236798525	       48.0132699013	     1426.2405037880	       85.5564177036	       84.9697589874
69	        0.3400000036	     1313.0036592484	     1495.8094358444	      165.3711795807	     1333.1103920937	     1504.1446685791	     -167.6990985870	     1241.2126064301	     1519.3692445755	      -10.5633139610	     1314.7129416466	     1194.5085525513	     -300.0947833061	     1508.5278153419	     1238.8399839401	     -136.3050341606	     1118.7252998352	     1263.1900310516	      307.1881532669	     1300.2685308456	     1051.5764951706	      262.2734308243	     1334.6018791199	      998.3276724815	      130.0353407860	     1355.6634783745	      991.0572767258	     -128.6978125572	     1168.6244010925	     1049.9421358109	       -3.1378269196	     1172.7830171585	     1050.1350164413	      -47.6399064064	     1171.3206171989	     1051.1572360992	       39.5829081535	     1188.6699199677	      720.3338742256	     -162.7775132656	     1150.8476734161	      616.0219311714	     -142.9038047791	     1278.9319157600	      682.3447346687	      -78.3052444458	     1224.4445681572	      590.6010866165	      -71.7761516571	     1105.8800220490	      531.3240885735	     -127.1901130676	     1157.6930284500	      491.9276535511	      -81.2566876411	     1039.2409563065	      373.5908865929	      -83.0621123314	      969.6906805038	      291.8130457401	      -81.4866423607	      952.5874853134	      372.8901445866	     -128.3233761787	      842.9828882217	      207.5920552015	      -98.3830094337	      779.1252136230	      224.2461144924	      -40.6648516655	      906.3873291016	      100.1447215676	      -52.6654124260	      839.3681049347	       77.4530991912	     -123.1033205986	      879.3225288391	       37.6910939813	     -127.2227168083	      899.2166519165	       50.9708933532	      -22.6433277130	      929.5355081558	       41.4991192520	      -54.1011691093	     1367.7795529366	      760.5620026588	      169.1468358040	     1415.6912565231	      677.2752404213	      146.9472050667	     1444.5388317108	      806.2958121300	       81.9763541222	     1491.1066889763	      724.5778441429	       74.6774077415	     1455.9152722359	      573.9015340805	      120.5857396126	     1534.1424345970	      566.5063858032	       71.8057751656	     1451.1969685555	      418.1053638458	       88.1612896919	     1396.5506553650	      320.4717636108	       83.1956863403	     1367.5510287285	      406.2120020390	      136.1840963364	     1275.4895687103	      205.1248103380	      106.1655879021	     1214.8471474648	      179.1341304779	       50.1168370247	     1388.7053728104	      143.4009820223	       65.3781890869	     1348.6677408218	      100.5482003093	      142.1398520470	     1399.0334868431	       83.2196176052	      149.7945189476	     1421.4321970940	       85.4933559895	       47.5677251816	     1466.7869806290	       87.7837538719	       84.0746760368
70	        0.3449999988	     1329.5128941536	     1498.7492561340	      165.9331321716	     1351.4637947083	     1507.6152086258	     -166.0332083702	     1258.6305737495	     1522.1650600433	      -10.2317333221	     1334.6118927002	     1199.0824937820	     -300.5345165730	     1525.1800417900	     1245.1084852219	     -132.9071521759	     1132.8613758087	     1267.5906419754	      305.6081533432	     1315.1627779007	     1055.7909011841	      264.5180821419	     1353.5454869270	     1002.3529529572	      131.1831474304	     1375.5480051041	      993.8818812370	     -126.9142627716	     1188.1594657898	     1053.0902147293	       -2.9350519180	     1192.4411058426	     1053.1504154205	      -47.3411679268	     1190.5966401100	     1054.3380975723	       39.7789478302	     1203.3782005310	      724.6812582016	     -162.8178954124	     1162.9369258881	      621.4750409126	     -143.0174112320	     1294.4752573967	      684.6417784691	      -79.5099735260	     1236.4317774773	      593.9747095108	      -72.4497437477	     1115.9642934799	      537.8311276436	     -127.6254653931	     1167.8438186646	      496.8048930168	      -82.6046466827	     1049.0628480911	      379.9959421158	      -85.4169726372	      979.4937372208	      298.4166145325	      -84.3371152878	      961.4917039871	      380.2168369293	     -129.4987201691	      852.9813289642	      214.2086923122	     -100.4943847656	      791.8001413345	      234.8012775183	      -42.4026250839	      913.3206605911	      104.9745455384	      -55.0051331520	      843.6356782913	       83.4613591433	     -122.6351857185	      880.6188106537	       40.0133877993	     -126.9336938858	      904.2699337006	       55.7359308004	      -23.2509374619	      932.9210519791	       41.9223159552	      -55.4543733597	     1385.4547142982	      763.6083364487	      169.0660715103	     1432.5530529022	      679.9087524414	      146.8550562859	     1462.9018306732	      809.6720576286	       82.8455090523	     1508.5355043411	      727.3630499840	       75.0796794891	     1473.2407927513	      575.7532715797	      121.0762858391	     1551.6031980515	      569.8484182358	       72.3856091499	     1474.8051762581	      419.0698266029	       88.1385803223	     1424.7077703476	      318.9752101898	       83.6611986160	     1392.0248746872	      402.9241204262	      137.4581456184	     1309.5617294312	      197.6432204247	      107.1033477783	     1250.3361105919	      168.2625263929	       51.1671304703	     1425.7380366325	      142.0030742884	       65.3777122498	     1388.7051343918	       96.7017933726	      142.2195434570	     1439.9423003197	       82.1299850941	      149.4498252869	     1461.6960883141	       86.1034542322	       46.4156270027	     1506.8616867065	       90.5907899141	       83.1862092018
71	        0.3499999940	     1346.1172580719	     1501.6430616379	      166.4872169495	     1369.8176145554	     1510.7190608978	     -164.3049418926	     1276.0582566261	     1524.7013568878	       -9.8736286163	     1354.5202016830	     1203.3731937408	     -300.7462918758	     1541.8314933777	     1250.9796619415	     -129.7094821930	     1147.1482515335	     1271.5978622437	      304.0032386780	     1330.2188515663	     1059.8523616791	      266.6810154915	     1372.5832104683	     1006.1296224594	      132.2436928749	     1395.2674269676	      996.5349435806	     -125.1718401909	     1207.6794505119	     1056.0126304626	       -2.7028322220	     1212.0028138161	     1055.9959411621	      -47.1250414848	     1209.7270488739	     1057.3432445526	       39.9059057236	     1218.1507349014	      729.0548682213	     -162.7992391586	     1175.1609444618	      626.8911957741	     -142.9987549782	     1308.9836835861	      686.8457198143	      -80.6868076324	     1248.8114833832	      597.6999402046	      -73.9282965660	     1126.6169548035	      544.1771745682	     -127.8267502785	     1179.1661381721	      501.6786456108	      -84.6535563469	     1059.3286752701	      386.1722648144	      -87.5278711319	      989.4241094589	      304.7842383385	      -86.6200327873	      971.0036516190	      387.4098658562	     -130.4821968079	      863.1558418274	      221.4039713144	     -102.3684740067	      804.5344352722	      245.2764064074	      -44.1888570786	      920.5850362778	      110.6630563736	      -56.8721890450	      849.3697643280	       90.4324352741	     -122.5373148918	      882.4920654297	       43.2505272329	     -126.6949176788	      910.1147651672	       61.1148104072	      -24.5459079742	      936.6382360458	       42.7987650037	      -56.9423437119	     1402.6677608490	      765.9235000610	      169.0220832825	     1449.1139650345	      681.8347573280	      146.6237306595	     1481.4867973328	      812.5021457672	       83.8753581047	     1525.7564187050	      729.5070886612	       75.6316781044	     1490.2457594872	      577.0428180695	      121.6387748718	     1568.8313841820	      572.5291967392	       72.9818940163	     1497.7712631226	      419.7263419628	       88.7513756752	     1452.5470137596	      317.3894584179	       84.1960310936	     1416.3412451744	      399.3746638298	      138.7892961502	     1345.4238176346	      190.1105195284	      107.1088910103	     1285.6368422508	      157.9001545906	       52.6022315025	     1462.5472426414	      140.9455090761	       65.0228261948	     1428.4473061562	       93.4444665909	      142.1765089035	     1480.4052710533	       81.6331654787	      148.8839983940	     1501.0014772415	       87.1385857463	       46.1236238480	     1546.1671948433	       93.9875841141	       82.1397900581
